<svg xmlns="http://www.w3.org/2000/svg" viewBox="0 0 24 24" width="24" height="24" fill="currentColor">
  <path d="M12 2.163c3.204 0 3.584.012 4.85.07 1.17.053 1.805.248 2.227.415.562.217.96.477 1.382.896.419.42.679.819.896 1.381.167.422.362 1.057.413 2.227.058 1.266.07 1.646.07 4.85s-.012 3.584-.07 4.85c-.053 1.17-.248 1.805-.413 2.227-.217.562-.477.96-.896 1.382-.42.419-.819.679-1.381.896-.422.167-1.057.362-2.227.413-1.266.058-1.646.07-4.85.07s-3.584-.012-4.85-.07c-1.17-.053-1.805-.248-2.227-.413-.562-.217-.96-.477-1.382-.896-.419-.42-.679-.819-.896-1.381-.167-.422-.362-1.057-.413-2.227-.058-1.266-.07-1.646-.07-4.85s.012-3.584.07-4.85c.053-1.17.248-1.805.413-2.227.217-.562.477-.96.896-1.382.42-.419.819-.679 1.381-.896.422-.167 1.057-.362 2.227-.413C8.416 2.175 8.796 2.163 12 2.163m0-1.602C8.72 0.561 8.333 0.573 7.05 0.63c-1.243.057-2.088.263-2.827.56C3.502 1.476 2.904 1.93 2.344 2.49C1.784 3.05 1.32 3.648 1.036 4.37c-.297.74-.503 1.584-.56 2.827C0.418 8.473 0.406 8.86 0.406 12s.012 3.527.07 4.8c.057 1.243.263 2.088.56 2.827.284.722.748 1.32 1.308 1.88.56.56 1.158 1.024 1.88 1.308.74.297 1.584.503 2.827.56 1.277.058 1.663.07 4.8.07s3.527-.012 4.8-.07c1.243-.057 2.088-.263 2.827-.56.722-.284 1.32-.748 1.88-1.308.56-.56 1.024-1.158 1.308-1.88.297-.74.503-1.584.56-2.827.058-1.277.07-1.663.07-4.8s-.012-3.527-.07-4.8c-.057-1.243-.263-2.088-.56-2.827-.284-.722-.748-1.32-1.308-1.88-.56-.56-1.158-1.024-1.88-1.308-.74-.297-1.584-.503-2.827-.56C15.527 0.573 15.28 0.561 12 0.561z"/>
  <path d="M12 6.847c-2.836 0-5.153 2.317-5.153 5.153s2.317 5.153 5.153 5.153 5.153-2.317 5.153-5.153S14.836 6.847 12 6.847zm0 8.705c-1.963 0-3.552-1.59-3.552-3.552s1.59-3.552 3.552-3.552 3.552 1.59 3.552 3.552-1.59 3.552-3.552 3.552z"/>
  <circle cx="16.802" cy="7.198" r="1.237"/>
</svg>