<svg xmlns="http://www.w3.org/2000/svg" viewBox="0 0 24 24" width="24" height="24" fill="currentColor">
  <path d="M22.46 6c-.77.35-1.6.58-2.46.67.9-.53 1.59-1.37 1.92-2.38-.84.5-1.78.86-2.79 1.07C18.36 4.5 17.26 4 16 4c-2.35 0-4.27 1.92-4.27 4.29 0 .34.04.67.11.98C8.28 9.09 5.11 7.38 3 4.79c-.37.63-.58 1.37-.58 2.15 0 1.49.75 2.81 1.91 3.56-.71 0-1.37-.22-1.95-.5v.03c0 2.08 1.48 3.82 3.44 4.21a4.22 4.22 0 0 1-1.94.07 4.28 4.28 0 0 0 4 2.98 8.521 8.521 0 0 1-5.33 1.84c-.34 0-.68-.02-1.01-.06C3.18 20.29 5.26 21 7.5 21c7.64 0 11.94-6.34 11.94-11.94l-.02-.54A8.49 8.49 0 0 0 22.46 6Z"/>
</svg>